<?xml version="1.0" encoding="UTF-8"?><svg xmlns="http://www.w3.org/2000/svg" xmlns:xlink="http://www.w3.org/1999/xlink" viewBox="0 0 62.64 17.6"><defs><style>.h{fill:url(#f);}.i{fill:none;}.j{clip-path:url(#e);}.k{clip-path:url(#d);}.l{clip-path:url(#g);}</style><clipPath id="d"><rect class="i" y="0" width="62.64" height="17.6"/></clipPath><clipPath id="e"><path class="i" d="M8.8,0C3.94,0,0,3.94,0,8.8s3.94,8.8,8.8,8.8c3.65,0,6.79-2.23,8.12-5.39l-8.07-3.4,8.07-3.4C15.59,2.23,12.45,0,8.8,0Z"/></clipPath><linearGradient id="f" x1="-1.33" y1="18.17" x2="-1.25" y2="18.17" gradientTransform="translate(-4036.34 295.88) rotate(90) scale(222.61 -222.61)" gradientUnits="userSpaceOnUse"><stop offset="0" stop-color="#eee534"/><stop offset=".02" stop-color="#edd134"/><stop offset=".1" stop-color="#ea9937"/><stop offset=".17" stop-color="#e86b39"/><stop offset=".24" stop-color="#e7473a"/><stop offset=".3" stop-color="#e52d3c"/><stop offset=".36" stop-color="#e51d3c"/><stop offset=".41" stop-color="#e5183d"/><stop offset=".46" stop-color="#e51746"/><stop offset=".64" stop-color="#e61463"/><stop offset=".7" stop-color="#cd2874"/><stop offset=".83" stop-color="#8d5ca0"/><stop offset="1" stop-color="#2caee5"/><stop offset="1" stop-color="#2caee5"/></linearGradient><clipPath id="g"><rect class="i" y="0" width="62.64" height="17.6"/></clipPath></defs><g id="a"/><g id="b"><g id="c"><g class="k"><g class="j"><rect class="h" x="-3.39" y="-2.93" width="23.7" height="23.45" transform="translate(-3.39 11.73) rotate(-60)"/></g><g class="l"><path d="M23.79,14.85h-1.42l-.41,.73h-.32l1.68-2.99h.31l.62,2.99h-.31l-.14-.73Zm-.06-.28l-.32-1.6-.89,1.6h1.21Z"/><polygon points="25.15 12.59 25.38 12.59 26.65 15.02 27.07 12.59 27.37 12.59 26.84 15.58 26.61 15.58 25.35 13.15 24.92 15.58 24.62 15.58 25.15 12.59"/><polygon points="28.8 14.19 28.56 15.58 28.26 15.58 28.5 14.19 27.75 12.59 28.06 12.59 28.68 13.91 29.77 12.59 30.12 12.59 28.8 14.19"/><polygon points="32.34 12.87 31.42 12.87 30.94 15.58 30.64 15.58 31.12 12.87 30.2 12.87 30.25 12.59 32.39 12.59 32.34 12.87"/><polygon points="35.03 12.59 34.51 15.58 34.21 15.58 34.45 14.19 32.83 14.19 32.58 15.58 32.28 15.58 32.81 12.59 33.11 12.59 32.88 13.9 34.5 13.9 34.73 12.59 35.03 12.59"/><polygon points="36.01 12.59 35.49 15.58 35.19 15.58 35.71 12.59 36.01 12.59"/><polygon points="36.7 12.59 36.93 12.59 38.2 15.02 38.62 12.59 38.92 12.59 38.39 15.58 38.16 15.58 36.9 13.15 36.47 15.58 36.17 15.58 36.7 12.59"/><path d="M42.16,14.31c-.12,.72-.76,1.32-1.64,1.32-.96,0-1.5-.74-1.34-1.61,.15-.85,.91-1.48,1.78-1.48,.59,0,1.01,.3,1.23,.74l-.27,.14c-.17-.34-.46-.59-.97-.59-.76,0-1.36,.54-1.48,1.24-.12,.7,.27,1.27,1.06,1.27,.67,0,1.15-.41,1.3-.9h-1.19l.05-.28h1.5l-.03,.15Z"/><path d="M46.34,14.13c-.15,.85-.83,1.45-1.71,1.45h-1.22l.53-2.99h1.22c.78,0,1.34,.69,1.19,1.54m-1.32-.8h-.43l-.27,1.51h.41c.44,0,.78-.31,.86-.77,.08-.46-.16-.74-.57-.74"/><polygon points="47.6 13.31 47.52 13.72 48.56 13.72 48.43 14.43 47.4 14.43 47.33 14.87 48.48 14.87 48.36 15.58 46.43 15.58 46.96 12.59 48.86 12.59 48.73 13.31 47.6 13.31"/><polygon points="50.64 14.84 50.51 15.58 48.72 15.58 49.24 12.59 50.01 12.59 49.61 14.84 50.64 14.84"/><polygon points="52.08 12.59 51.55 15.58 50.79 15.58 51.31 12.59 52.08 12.59"/><polygon points="52.29 12.59 53.08 12.59 53.28 14.69 54.2 12.59 55.07 12.59 53.61 15.58 52.7 15.58 52.29 12.59"/><polygon points="55.92 13.31 55.84 13.72 56.88 13.72 56.75 14.43 55.72 14.43 55.65 14.87 56.8 14.87 56.68 15.58 54.75 15.58 55.28 12.59 57.18 12.59 57.05 13.31 55.92 13.31"/><path d="M59.01,14.5l.41,1.09h-.77l-.35-.97h-.32l-.17,.97h-.76l.53-2.99h1.17c.59,0,1.03,.47,.92,1.08-.07,.38-.31,.67-.65,.83m-.92-.53h.44c.19,0,.33-.13,.37-.33,.03-.2-.07-.34-.28-.34h-.41l-.12,.67Z"/><polygon points="61.32 14.28 61.09 15.58 60.33 15.58 60.56 14.28 59.89 12.59 60.7 12.59 61.02 13.55 61.68 12.59 62.58 12.59 61.32 14.28"/><path d="M25.63,1.59v2.93c-.38-.45-.93-.71-1.69-.71-1.6,0-2.8,1.36-2.8,3.15s1.2,3.15,2.8,3.15c.76,0,1.31-.26,1.69-.71v.55h1.98V1.59h-1.98Zm-1.25,6.66c-.74,0-1.25-.52-1.25-1.3s.51-1.3,1.25-1.3,1.25,.52,1.25,1.3-.51,1.3-1.25,1.3m5.36-4.77c.62,0,1.14-.52,1.14-1.14s-.52-1.13-1.14-1.13-1.14,.51-1.14,1.13,.52,1.14,1.14,1.14m-.99,6.45h1.98V3.98h-1.98v5.96Zm6.96-5.96l-1.11,3.42-1.11-3.42h-2.19l2.23,5.96h2.14l2.23-5.96h-2.19Zm5.39-.17c-1.76,0-3.18,1.37-3.18,3.15s1.43,3.15,3.18,3.15,3.18-1.37,3.18-3.15-1.41-3.15-3.18-3.15m0,4.38c-.68,0-1.19-.5-1.19-1.24s.51-1.24,1.19-1.24,1.2,.5,1.2,1.24-.51,1.24-1.2,1.24m6.95-4.38c-1.76,0-3.18,1.37-3.18,3.15s1.43,3.15,3.18,3.15,3.18-1.37,3.18-3.15-1.41-3.15-3.18-3.15m0,4.38c-.68,0-1.19-.5-1.19-1.24s.51-1.24,1.19-1.24,1.2,.5,1.2,1.24-.51,1.24-1.2,1.24m6.03-3.11v-1.11h-1.98v5.96h1.98v-2.47c0-1.18,1-1.54,1.79-1.42V3.86c-.8,0-1.55,.42-1.79,1.23m6.59-1.11v.55c-.38-.45-.93-.71-1.69-.71-1.6,0-2.8,1.36-2.8,3.15s1.2,3.15,2.8,3.15c.76,0,1.31-.26,1.69-.71v.55h1.98V3.98h-1.98Zm-1.25,4.28c-.74,0-1.25-.52-1.25-1.3s.51-1.3,1.25-1.3,1.25,.52,1.25,1.3-.51,1.3-1.25,1.3"/></g></g></g></g></svg>